<?xml version="1.0" standalone="no"?>
<!DOCTYPE svg PUBLIC "-//W3C//DTD SVG 20010904//EN"
 "http://www.w3.org/TR/2001/REC-SVG-20010904/DTD/svg10.dtd">
<svg version="1.0" xmlns="http://www.w3.org/2000/svg"
 width="512.000000pt" height="512.000000pt" viewBox="0 0 512.000000 512.000000"
 preserveAspectRatio="xMidYMid meet">

<g transform="translate(0.000000,512.000000) scale(0.100000,-0.100000)"
fill="#ff8000" stroke="none">
<path d="M2515 5111 c-37 -16 -63 -55 -139 -206 -183 -361 -221 -537 -151
-693 32 -72 105 -146 180 -183 43 -21 64 -24 155 -24 96 0 110 2 163 29 168
85 240 264 188 467 -40 152 -211 521 -270 582 -30 31 -90 44 -126 28z"/>
<path d="M754 4366 c-27 -27 -34 -42 -34 -73 0 -80 111 -399 195 -562 62 -119
118 -182 203 -223 62 -31 74 -33 167 -33 82 0 109 4 148 22 66 31 152 115 184
182 25 50 28 67 28 156 0 93 -2 105 -33 167 -41 84 -104 141 -221 202 -169 87
-482 196 -563 196 -32 0 -47 -7 -74 -34z"/>
<path d="M4140 4366 c-257 -81 -464 -175 -550 -253 -31 -28 -61 -69 -82 -111
-31 -62 -33 -74 -33 -167 0 -82 4 -109 22 -148 31 -66 115 -152 182 -184 50
-25 67 -28 156 -28 93 0 105 2 167 33 85 41 141 104 203 223 84 163 195 482
195 562 0 31 -7 46 -34 73 -44 44 -85 44 -226 0z"/>
<path d="M2465 3689 c-421 -33 -793 -306 -956 -702 -107 -260 -108 -585 -2
-848 118 -296 368 -537 667 -644 132 -47 240 -66 386 -66 319 0 589 114 810
341 189 194 298 432 318 693 26 342 -83 645 -318 887 -188 194 -445 319 -690
336 -41 3 -86 6 -100 8 -14 1 -65 -1 -115 -5z"/>
<path d="M610 2909 c-100 -27 -215 -76 -397 -166 -182 -91 -208 -114 -208
-183 0 -69 26 -92 208 -183 290 -144 437 -193 562 -185 131 9 251 88 311 205
27 53 29 67 29 163 0 124 -18 172 -97 256 -98 104 -247 138 -408 93z"/>
<path d="M4265 2916 c-71 -22 -119 -53 -168 -105 -75 -80 -92 -126 -92 -251 0
-91 3 -112 24 -155 37 -75 111 -148 184 -180 156 -71 318 -36 684 147 191 95
218 118 218 188 0 70 -27 93 -218 188 -327 163 -501 209 -632 168z"/>
<path d="M1158 1631 c-113 -45 -172 -104 -243 -242 -84 -163 -195 -482 -195
-562 0 -56 51 -107 108 -107 81 0 394 109 563 196 117 61 180 118 221 202 31
62 33 74 33 167 0 121 -18 168 -96 250 -75 80 -140 108 -253 112 -71 3 -101
-1 -138 -16z"/>
<path d="M3723 1636 c-60 -19 -104 -49 -157 -106 -73 -78 -91 -126 -91 -245 0
-93 2 -105 33 -167 41 -85 104 -141 223 -203 163 -84 482 -195 562 -195 56 0
107 51 107 107 0 80 -111 399 -195 562 -61 119 -118 182 -203 223 -57 28 -78
33 -152 35 -51 2 -102 -3 -127 -11z"/>
<path d="M2443 1106 c-139 -45 -241 -180 -251 -331 -8 -124 53 -306 196 -585
81 -159 105 -185 172 -185 67 0 91 26 172 185 192 376 234 560 163 717 -33 74
-111 154 -182 185 -60 27 -207 35 -270 14z"/>
</g>
</svg>
